<svg width="48" height="48" viewBox="0 0 48 48" fill="none" xmlns="http://www.w3.org/2000/svg">
<path d="M24 4C12.96 4 4 12.96 4 24C4 35.04 12.96 44 24 44C35.04 44 44 35.04 44 24C44 12.96 35.04 4 24 4ZM26.82 36.18V40H21.48V36.14C18.06 35.42 15.16 33.22 14.94 29.34H18.86C19.06 31.44 20.5 33.08 24.16 33.08C28.08 33.08 28.96 31.12 28.96 29.9C28.96 28.24 28.08 26.68 23.62 25.62C18.66 24.42 15.26 22.38 15.26 18.28C15.26 14.84 18.04 12.6 21.48 11.86V8H26.82V11.9C30.54 12.8 32.4 15.62 32.52 18.68H28.6C28.5 16.46 27.32 14.94 24.16 14.94C21.16 14.94 19.36 16.3 19.36 18.22C19.36 19.9 20.66 21 24.7 22.04C28.74 23.08 33.06 24.82 33.06 29.86C33.04 33.52 30.3 35.52 26.82 36.18Z" fill="#6DCBFF"/>
</svg>
