<svg width="50" height="48" viewBox="0 0 50 48" fill="none" xmlns="http://www.w3.org/2000/svg">
<path d="M37.7206 24.84C37.7206 13.86 29.2632 6.40002 19.8529 6.40002C10.5419 6.40002 1.98529 13.7 1.98529 24.96C0.794118 25.64 0 26.92 0 28.4V32.4C0 34.6 1.78676 36.4 3.97059 36.4H5.95588V24.2C5.95588 16.46 12.1699 10.2 19.8529 10.2C27.536 10.2 33.75 16.46 33.75 24.2V38.4H17.8676V42.4H33.75C35.9338 42.4 37.7206 40.6 37.7206 38.4V35.96C38.8919 35.34 39.7059 34.12 39.7059 32.68V28.08C39.7059 26.68 38.8919 25.46 37.7206 24.84Z" fill="#6DCBFF"/>
<path d="M13.8972 28.4C14.9936 28.4 15.8825 27.5046 15.8825 26.4C15.8825 25.2955 14.9936 24.4 13.8972 24.4C12.8007 24.4 11.9119 25.2955 11.9119 26.4C11.9119 27.5046 12.8007 28.4 13.8972 28.4Z" fill="#6DCBFF"/>
<path d="M25.8088 28.4C26.9052 28.4 27.7941 27.5046 27.7941 26.4C27.7941 25.2955 26.9052 24.4 25.8088 24.4C24.7123 24.4 23.8235 25.2955 23.8235 26.4C23.8235 27.5046 24.7123 28.4 25.8088 28.4Z" fill="#6DCBFF"/>
<path d="M31.7647 22.46C30.8118 16.76 25.8882 12.4 19.9522 12.4C13.9368 12.4 7.46471 17.42 7.98089 25.3C12.8846 23.28 16.5772 18.88 17.6294 13.52C20.2302 18.78 25.5706 22.4 31.7647 22.46Z" fill="#6DCBFF"/>
</svg>
