<svg width="48" height="48" viewBox="0 0 48 48" fill="none" xmlns="http://www.w3.org/2000/svg">
<path d="M24 16C26.2091 16 28 14.2091 28 12C28 9.79086 26.2091 8 24 8C21.7909 8 20 9.79086 20 12C20 14.2091 21.7909 16 24 16Z" fill="#6DCBFF"/>
<path d="M42 32V28C37.52 28 33.68 26.08 30.8 22.64L28.12 19.44C27.36 18.52 26.24 18 25.06 18H22.96C21.78 18 20.66 18.52 19.9 19.44L17.22 22.64C14.32 26.08 10.48 28 6 28V32C11.54 32 16.38 29.66 20 25.5V30L12.24 33.1C10.9 33.64 10 34.96 10 36.42C10 38.4 11.6 40 13.58 40H18V39C18 36.24 20.24 34 23 34H29C29.56 34 30 34.44 30 35C30 35.56 29.56 36 29 36H23C21.34 36 20 37.34 20 39V40H34.42C36.4 40 38 38.4 38 36.42C38 34.96 37.1 33.64 35.76 33.1L28 30V25.5C31.62 29.66 36.46 32 42 32Z" fill="#6DCBFF"/>
</svg>
