<svg width="29" height="29" viewBox="0 0 29 29" fill="none" xmlns="http://www.w3.org/2000/svg">
<path d="M24.1787 18.584C22.6924 18.584 21.2545 18.3424 19.9133 17.9074C19.4904 17.7624 19.0191 17.8711 18.6929 18.1974L16.7958 20.5778C13.3762 18.9465 10.1741 15.8653 8.4704 12.3249L10.8266 10.319C11.1529 9.98071 11.2496 9.50946 11.1166 9.08655C10.6696 7.7453 10.44 6.30738 10.44 4.82113C10.44 4.16863 9.89623 3.62488 9.24373 3.62488H5.06291C4.41041 3.62488 3.625 3.91488 3.625 4.82113C3.625 16.0465 12.9654 25.3749 24.1787 25.3749C25.0366 25.3749 25.3749 24.6136 25.3749 23.949V19.7803C25.3749 19.1278 24.8312 18.584 24.1787 18.584Z" fill="#276DD6"/>
</svg>
