<svg width="17" height="15" viewBox="0 0 17 15" fill="none" xmlns="http://www.w3.org/2000/svg">
<path d="M13.4934 9.02506C12.664 9.02506 11.8615 8.9077 11.113 8.69645C10.877 8.62603 10.614 8.67884 10.4319 8.83728L9.37322 9.99329C7.46485 9.2011 5.67785 7.70475 4.72704 5.98541L6.042 5.01131C6.22407 4.847 6.27801 4.61815 6.20384 4.41277C5.95433 3.76141 5.82621 3.06311 5.82621 2.34134C5.82621 2.02447 5.52276 1.76041 5.15862 1.76041H2.82541C2.46127 1.76041 2.02295 1.90124 2.02295 2.34134C2.02295 7.79277 7.23557 12.3229 13.4934 12.3229C13.9722 12.3229 14.161 11.9532 14.161 11.6305V9.606C14.161 9.28912 13.8576 9.02506 13.4934 9.02506Z" fill="#276DD6"/>
</svg>
