<svg version="1.2" baseProfile="tiny-ps" xmlns="http://www.w3.org/2000/svg" viewBox="0 0 567 567" width="567" height="567">
	<title>Logo_DOM</title>
	<style>
		tspan { white-space:pre }
		.shp0 { fill: #344650 } 
	</style>
	<g id="Слой 1">
		<path id="&lt;Compound Path&gt;" fill-rule="evenodd" class="shp0" d="M302.22 296.93L181.2 296.93L181.2 23.92L302.22 23.92L302.22 296.93ZM270.64 54.17L212.8 54.17L212.8 266.64L270.64 266.64L270.64 54.17Z" />
		<path id="&lt;Path&gt;" class="shp0" d="M29.22 356.83L543.63 356.83L543.63 326.67L29.22 326.67L29.22 356.83Z" />
		<path id="&lt;Compound Path&gt;" fill-rule="evenodd" class="shp0" d="M29.22 386.96L240.88 386.96L240.88 504.83L60.7 504.83L60.7 539L29.22 539L29.22 386.96ZM60.7 474.7L209.39 474.7L209.39 417.11L60.7 417.11L60.7 474.7Z" />
		<path id="&lt;Path&gt;" class="shp0" d="M364.77 114.74L422.61 54.17L422.61 296.93L454.19 296.93L454.19 114.73L512.02 54.19L512.02 296.93L543.63 296.93L543.63 23.92L499.24 23.92L454.19 70.94L454.19 23.92L409.82 23.92L333.15 103.27L333.15 296.93L364.77 296.93L364.77 114.74Z" />
		<path id="&lt;Compound Path&gt;" fill-rule="evenodd" class="shp0" d="M271.68 386.96L543.63 386.96L543.63 504.83L423.76 504.83L423.76 539L390.91 539L390.91 504.83L271.68 504.83L271.68 386.96ZM423.76 474.7L512.15 474.7L512.15 417.11L423.76 417.11L423.76 474.7ZM303.18 474.7L390.91 474.7L390.91 417.11L303.18 417.11L303.18 474.7Z" />
		<path id="&lt;Compound Path&gt;" fill-rule="evenodd" class="shp0" d="M29.22 296.93L29.22 103.27L105.88 23.92L150.26 23.92L150.26 296.93L29.22 296.93ZM60.84 266.65L118.65 266.65L118.65 54.19L60.84 114.74L60.84 266.65Z" />
		<path id="&lt;Path&gt;" class="shp0" d="M29.22 356.83L543.63 356.83L543.63 326.67L29.22 326.67L29.22 356.83Z" />
		<path id="&lt;Compound Path&gt;" fill-rule="evenodd" class="shp0" d="M29.22 386.96L240.88 386.96L240.88 504.83L60.7 504.83L60.7 539L29.22 539L29.22 386.96ZM60.7 474.7L209.39 474.7L209.39 417.11L60.7 417.11L60.7 474.7Z" />
		<path id="&lt;Compound Path&gt;" fill-rule="evenodd" class="shp0" d="M271.68 386.96L543.63 386.96L543.63 504.83L423.76 504.83L423.76 539L390.91 539L390.91 504.83L271.68 504.83L271.68 386.96ZM423.76 474.7L512.15 474.7L512.15 417.11L423.76 417.11L423.76 474.7ZM303.18 474.7L390.91 474.7L390.91 417.11L303.18 417.11L303.18 474.7Z" />
		<path id="&lt;Compound Path&gt;" fill-rule="evenodd" class="shp0" d="M302.22 296.93L181.2 296.93L181.2 23.92L302.22 23.92L302.22 296.93ZM270.64 54.17L212.8 54.17L212.8 266.64L270.64 266.64L270.64 54.17Z" />
		<path id="&lt;Path&gt;" class="shp0" d="M364.77 114.74L422.61 54.17L422.61 296.93L454.19 296.93L454.19 114.73L512.02 54.19L512.02 296.93L543.63 296.93L543.63 23.92L499.24 23.92L454.19 70.94L454.19 23.92L409.82 23.92L333.15 103.27L333.15 296.93L364.77 296.93L364.77 114.74Z" />
		<path id="&lt;Compound Path&gt;" fill-rule="evenodd" class="shp0" d="M29.22 296.93L29.22 103.27L105.88 23.92L150.26 23.92L150.26 296.93L29.22 296.93ZM60.84 266.65L118.65 266.65L118.65 54.19L60.84 114.74L60.84 266.65Z" />
	</g>
</svg>