<?xml version="1.0" encoding="UTF-8" standalone="no"?>
<svg
   xmlns:dc="http://purl.org/dc/elements/1.1/"
   xmlns:cc="http://creativecommons.org/ns#"
   xmlns:rdf="http://www.w3.org/1999/02/22-rdf-syntax-ns#"
   xmlns:svg="http://www.w3.org/2000/svg"
   xmlns="http://www.w3.org/2000/svg"
   viewBox="0 0 1200.1067 425"
   height="425"
   width="1200.1067"
   xml:space="preserve"
   id="svg2"
   version="1.1"><metadata
     id="metadata8"><rdf:RDF><cc:Work
         rdf:about=""><dc:format>image/svg+xml</dc:format><dc:type
           rdf:resource="http://purl.org/dc/dcmitype/StillImage" /></cc:Work></rdf:RDF></metadata><defs
     id="defs6" /><g
     transform="matrix(1.3333333,0,0,-1.3333333,0,425)"
     id="g10"><g
       transform="scale(0.1)"
       id="g12"><path
         id="path14"
         style="fill:#2e3f4b;fill-opacity:1;fill-rule:nonzero;stroke:none"
         d="m 2906.29,3187.44 v -0.59 l -281.2,-281.29 v 281.88 H 2343.8 v -0.03 0.03 L 1875.09,2718.7 V 1499.96 h 187.48 v 1124.96 l 375.01,375.01 V 1499.96 h 187.51 v 1124.96 l 374.95,375.01 V 1499.96 h 187.51 v 1687.48 h -281.26" /><path
         id="path16"
         style="fill:#2e3f4b;fill-opacity:1;fill-rule:nonzero;stroke:none"
         d="M 0.113281,1499.97 H 750.113 V 3187.45 H 468.82 v -0.04 l -0.027,0.09 L 0,2718.7 0.113281,2718.59 Z M 562.602,2999.94 V 1687.47 H 187.621 v 937.48 l 374.981,374.99" /><path
         id="path18"
         style="fill:#2e3f4b;fill-opacity:1;fill-rule:nonzero;stroke:none"
         d="M 1687.59,3187.45 H 937.621 V 1499.98 h 749.969 z m -562.49,-187.5 h 374.99 V 1687.46 H 1125.1 v 1312.49" /><path
         id="path20"
         style="fill:#2e3f4b;fill-opacity:1;fill-rule:nonzero;stroke:none"
         d="M 0.117188,1124.96 H 3187.56 v 187.51 H 0.117188 v -187.51" /><path
         id="path22"
         style="fill:#2e3f4b;fill-opacity:1;fill-rule:nonzero;stroke:none"
         d="M 0.113281,937.48 V 0 H 187.621 V 187.48 H 1312.6 v 750 z M 1125.1,374.988 H 187.621 V 749.969 H 1125.1 V 374.988" /><path
         id="path24"
         style="fill:#2e3f4b;fill-opacity:1;fill-rule:nonzero;stroke:none"
         d="m 1500.09,937.48 v -750 h 750 V 0 h 187.48 v 187.48 h 750 v 750 z m 187.48,-187.511 h 562.49 V 374.988 H 1687.57 Z M 3000.06,374.988 h -562.49 v 374.981 h 562.49 V 374.988" /><path
         id="path26"
         style="fill:#2e3f4b;fill-opacity:1;fill-rule:nonzero;stroke:none"
         d="m 6150.14,1078.21 h -336.91 v 843.55 h 556.72 v -146.88 h -392.36 v -170.56 h 172.55 c 169.04,0 272.97,-109.13 272.97,-263.07 0,-154.08 -102.77,-263.04 -272.97,-263.04 m -8.26,379.11 h -164.29 v -232.29 h 164.29 c 73.26,0 116.97,46.22 116.97,116.22 0,68.65 -43.71,116.07 -116.97,116.07" /><path
         id="path28"
         style="fill:#2e3f4b;fill-opacity:1;fill-rule:nonzero;stroke:none"
         d="m 7125.59,1078.21 -49.7,149.21 h -299.03 l -50.88,-149.21 h -171.29 l 306.12,843.55 h 128.8 l 307.32,-843.55 z m -196.25,594.73 -106.38,-306.84 h 209.16 z" /><path
         id="path30"
         style="fill:#2e3f4b;fill-opacity:1;fill-rule:nonzero;stroke:none"
         d="m 7918.41,1078.21 v 353.14 h -284.86 v -353.14 h -164.23 v 843.55 h 164.23 v -344.71 h 284.86 v 344.71 h 164.34 v -843.55 h -164.34" /><path
         id="path32"
         style="fill:#2e3f4b;fill-opacity:1;fill-rule:nonzero;stroke:none"
         d="m 8340.07,1078.21 v 843.55 h 164.26 v -400.48 l 271.88,400.48 h 196.26 l -282.51,-395.79 310.8,-447.76 H 8799.9 l -295.57,440.76 v -440.76 h -164.26" /><path
         id="path34"
         style="fill:#7fcb2c;fill-opacity:1;fill-rule:nonzero;stroke:none"
         d="M 4687.52,0.320313 H 4500.05 V 3187.06 h 187.47 V 0.320313" /></g></g></svg>